<?xml version="1.0" encoding="utf-8"?>
<!-- Generator: Adobe Illustrator 25.0.1, SVG Export Plug-In . SVG Version: 6.00 Build 0)  -->
<svg version="1.1" id="Layer_1" xmlns="http://www.w3.org/2000/svg" xmlns:xlink="http://www.w3.org/1999/xlink" x="0px" y="0px"
	 viewBox="0 0 531.6 132.8" style="enable-background:new 0 0 531.6 132.8;" xml:space="preserve">
<style type="text/css">
	.st0{fill:none;stroke:#1E56A0;stroke-width:7.5;stroke-miterlimit:10;}
	.st1{opacity:0.75;fill:none;stroke:#B5D3EA;stroke-width:7.5;stroke-miterlimit:10;}
	.st2{fill:#1E56A0;}
</style>
<image style="display:none;overflow:visible;" width="550" height="200" xlink:href="D643568A.png"  transform="matrix(1 0 0 1 -28.2766 -27.1489)">
</image>
<path class="st0" d="M105.4,42.5L64.2,18c-0.6-0.4-1.4-0.4-2,0L20.8,40.7c-0.6,0.4-1,1-1,1.8l-0.2,47.2c0,0.7,0.4,1.4,1,1.7
	l41.2,24.5c0.6,0.4,1.4,0.4,2,0l41.4-22.7c0.6-0.4,1-1,1-1.8l0.2-47.2C106.4,43.6,106,42.9,105.4,42.5z"/>
<path class="st1" d="M111.8,65.8L87.1,24.7c-0.4-0.6-1-1-1.7-1l-47.2,0.4c-0.7,0-1.4,0.4-1.8,1.1L13.9,66.7c-0.3,0.6-0.3,1.4,0,2
	l24.7,41.1c0.4,0.6,1,1,1.7,1l47.2-0.4c0.7,0,1.4-0.4,1.8-1.1l22.5-41.5C112.2,67.2,112.2,66.4,111.8,65.8z"/>
<g>
	<path class="st2" d="M161,56h-14.8v8.1h13.1v7.5h-13.1v8.8H161v7.8h-24.5v-40H161V56z"/>
	<path class="st2" d="M183.7,48.2c9.8,0,14.7,5.6,14.7,12.6c0,5-2.7,9.7-8.9,11.6l9.2,15.8h-11l-8.3-15.1h-2.3v15.1h-9.7v-40H183.7z
		 M183.1,56.3h-6v9.9h6c3.6,0,5.4-1.9,5.4-5C188.5,58.2,186.8,56.3,183.1,56.3z"/>
	<path class="st2" d="M220.3,73.8h-6v14.4h-9.7v-40h15.8c9.8,0,14.7,5.5,14.7,12.9C235,67.7,230.5,73.8,220.3,73.8z M219.5,66.1
		c3.9,0,5.5-1.9,5.5-5c0-3.1-1.7-5-5.5-5h-5.3v10H219.5z"/>
	<path class="st2" d="M268.5,48.2c9.8,0,14.7,5.6,14.7,12.6c0,5-2.7,9.7-8.9,11.6l9.2,15.8h-11l-8.3-15.1h-2.3v15.1h-9.7v-40H268.5z
		 M267.9,56.3h-6v9.9h6c3.6,0,5.4-1.9,5.4-5C273.3,58.2,271.6,56.3,267.9,56.3z"/>
	<path class="st2" d="M303.4,88.6c-9.3,0-16.1-6.3-16.1-16.4c0-10.1,6.6-16.4,16.1-16.4c9.3,0,15.8,6.2,15.8,15.8
		c0,0.9-0.1,1.9-0.2,2.8h-22.1c0.3,4.2,2.9,6.1,6,6.1c2.7,0,4.3-1.4,5.1-3.1h10.4C317,83.9,311.4,88.6,303.4,88.6z M297.1,69.2h12.2
		c0-3.5-2.7-5.5-6-5.5C300.1,63.7,297.7,65.7,297.1,69.2z"/>
	<path class="st2" d="M337.4,88.6c-8.5,0-14.2-4.7-14.7-10.9h9.6c0.2,2.2,2.2,3.7,4.9,3.7c2.5,0,3.8-1.1,3.8-2.6
		c0-5.1-17.3-1.4-17.3-13.1c0-5.4,4.6-9.9,12.9-9.9c8.2,0,12.8,4.6,13.4,10.8h-9c-0.3-2.2-1.9-3.6-4.7-3.6c-2.3,0-3.5,0.9-3.5,2.5
		c0,5.1,17.2,1.5,17.4,13.3C350.2,84.5,345.3,88.6,337.4,88.6z"/>
	<path class="st2" d="M370.4,88.6c-9.3,0-16.1-6.3-16.1-16.4c0-10.1,6.6-16.4,16.1-16.4c9.3,0,15.8,6.2,15.8,15.8
		c0,0.9-0.1,1.9-0.2,2.8H364c0.3,4.2,2.9,6.1,6,6.1c2.7,0,4.3-1.4,5.1-3.1h10.4C383.9,83.9,378.3,88.6,370.4,88.6z M364,69.2h12.2
		c0-3.5-2.7-5.5-6-5.5C367.1,63.7,364.6,65.7,364,69.2z"/>
	<path class="st2" d="M403.4,55.9c4.7,0,8.1,2.2,9.8,5v-4.5h9.7v31.8h-9.7v-4.5c-1.8,2.8-5.1,5-9.9,5c-7.8,0-14-6.4-14-16.4
		S395.6,55.9,403.4,55.9z M406.3,64.4c-3.6,0-7,2.7-7,7.8c0,5.1,3.3,7.9,7,7.9c3.7,0,7-2.8,7-7.9C413.2,67.2,410,64.4,406.3,64.4z"
		/>
	<path class="st2" d="M439.8,88.2H430V56.4h9.7v5.3c2.2-3.4,5.7-5.6,10-5.6v10.3h-2.7c-4.6,0-7.3,1.6-7.3,7.1V88.2z"/>
	<path class="st2" d="M468.5,55.9c8,0,13.6,4.4,15.3,12h-10.4c-0.8-2.2-2.4-3.6-5.1-3.6c-3.5,0-5.9,2.7-5.9,8c0,5.3,2.4,8,5.9,8
		c2.7,0,4.2-1.3,5.1-3.6h10.4c-1.7,7.4-7.3,12-15.3,12c-9.3,0-16-6.3-16-16.4C452.5,62.3,459.1,55.9,468.5,55.9z"/>
	<path class="st2" d="M488.9,46h9.7v14.7c1.9-2.7,5.4-4.6,9.8-4.6c7.2,0,12.1,5,12.1,13.6v18.6h-9.7V70.9c0-4.3-2.4-6.7-6.1-6.7
		c-3.7,0-6.1,2.4-6.1,6.7v17.3h-9.7V46z"/>
</g>
</svg>
