<svg xmlns="http://www.w3.org/2000/svg" width="143" height="30" fill="none"><path fill="#fff" d="m37.4 23.4-2-.5v-2.5c1.5.4 2.8.7 4 .7 1.1 0 2-.3 2.5-.7.5-.4.8-1 .8-1.8 0-.5-.1-.9-.3-1.2-.1-.3-.4-.6-.8-.8-.4-.3-.9-.5-1.5-.7l-1.1-.4c-2.6-.9-4-2.5-4-5 0-1 .3-2 .8-2.7.5-.8 1.2-1.3 2.1-1.8 1-.4 2-.6 3.5-.6a14 14 0 0 1 3.4.5v2.5c-1-.3-2-.5-3.2-.5-2.4 0-3.6.8-3.6 2.5 0 .4.1.8.3 1 .1.4.4.6.7.8l1.4.7 1.1.4c1.4.4 2.4 1 3 1.9.8.8 1.1 1.8 1.1 3.1 0 1.1-.2 2-.7 2.8-.5.8-1.2 1.4-2 1.8a8 8 0 0 1-3.4.7l-2-.2ZM47.6 8.6c-.3-.3-.4-.6-.4-1.1 0-.5.1-.8.4-1 .3-.3.7-.4 1.2-.4s.9 0 1.2.3c.2.3.4.6.4 1.1 0 .5-.2.8-.4 1-.3.3-.7.4-1.2.4s-1 0-1.2-.3ZM50.3 10.3h-2.9v13h3v-13ZM52.9 10.3h2.4l.2 1.4h.2c.4-.5.9-1 1.4-1.2.6-.3 1.2-.4 1.9-.4 1.1 0 2 .3 2.6 1 .7.7 1 1.9 1 3.4v8.8h-2.9v-8.6c0-.7-.1-1.2-.4-1.5-.3-.4-.7-.5-1.3-.5-.4 0-.8 0-1.2.3-.4.2-.8.5-1 1v9.3h-2.9v-13ZM68.6 26.5c1 0 1.9-.3 2.4-.8s.8-1.3.8-2.5V22h-.1a3 3 0 0 1-1.2 1c-.5.4-1 .5-1.7.5s-1.4-.2-2-.6a4.5 4.5 0 0 1-1.7-2.1c-.3-1-.5-2.2-.5-3.7 0-2.4.5-4.1 1.5-5.3 1-1.1 2.6-1.7 4.7-1.7a12.5 12.5 0 0 1 3.9.6v12c0 2.1-.5 3.7-1.5 4.7s-2.4 1.4-4.4 1.4h-.2v-2.3Zm2.4-5.7c.3-.1.6-.4.8-.7v-7.6l-1.2-.1c-1 0-1.8.3-2.3 1-.5.7-.8 1.8-.8 3.4 0 1.1.1 2 .3 2.6.2.6.5 1 .8 1.3.4.2.9.4 1.4.4.3 0 .7-.1 1-.3ZM77.3 23.3V4h2.9v19.3h-3ZM92 17.7H85c0 1 .2 1.6.4 2.1.3.5.6.9 1 1.1.6.2 1.2.3 2 .3s1.8-.1 2.8-.4V23a13.4 13.4 0 0 1-3.1.5c-1.4 0-2.6-.3-3.4-.7a4.2 4.2 0 0 1-2-2.2c-.4-1-.6-2.3-.6-4 0-2.2.4-3.8 1.3-5a4.5 4.5 0 0 1 3.7-1.6c3.2 0 4.7 2.2 4.7 6.8v.8ZM86 12.4c-.3.2-.5.6-.7 1.2-.2.5-.3 1.3-.3 2.3h4.1c0-1 0-1.8-.2-2.3-.2-.6-.4-1-.7-1.2-.3-.2-.6-.3-1-.3-.5 0-.9 0-1.2.3ZM95.8 23.4l-2-.5v-2.5c1.4.4 2.8.7 4 .7 1.1 0 2-.3 2.4-.7.6-.4.8-1 .8-1.8 0-.5 0-.9-.2-1.2-.2-.3-.4-.6-.8-.8-.4-.3-1-.5-1.6-.7l-1-.4c-2.6-.9-4-2.5-4-5 0-1 .3-2 .8-2.7.4-.8 1.1-1.3 2-1.8 1-.4 2.2-.6 3.5-.6a14 14 0 0 1 3.5.5v2.5c-1-.3-2-.5-3.2-.5-2.4 0-3.6.8-3.6 2.5l.2 1c.2.3.4.6.8.8.3.3.8.5 1.4.7l1 .4c1.4.4 2.5 1 3.2 1.9.7.8 1 1.8 1 3.1 0 1.1-.2 2-.7 2.8-.5.8-1.2 1.4-2.1 1.8a8 8 0 0 1-3.4.6l-2-.1ZM112.5 21v2.3c-.6.2-1.3.3-2 .3-1.3 0-2.3-.4-3-1.1-.8-.7-1.1-1.9-1.1-3.5v-6.4h-2v-2.3h2l.5-4.6h2.4v4.6h3.1v2.3h-3.1v6.1c0 .6 0 1 .2 1.4.1.4.3.6.6.7.3.2.7.3 1.2.3.3 0 .7 0 1.2-.2ZM114.7 22c-.9-1.1-1.3-2.8-1.3-5.1 0-4.5 1.7-6.8 5.2-6.8 1.6 0 3 .6 3.8 1.7 1 1 1.4 2.8 1.4 5 0 4.5-1.7 6.8-5.2 6.8-1.7 0-3-.6-3.9-1.7Zm5.1-1c.3-.3.6-.7.8-1.4l.2-2.7c0-1.2 0-2.1-.2-2.8-.2-.7-.5-1.1-.8-1.4a2 2 0 0 0-1.2-.4 2 2 0 0 0-1.3.4c-.3.3-.5.7-.7 1.4-.2.6-.3 1.5-.3 2.7 0 1.2.1 2.1.3 2.8.2.6.4 1.1.7 1.4.4.2.8.4 1.3.4s.9-.2 1.2-.4ZM125.8 10.3h2.4l.2 1.8h.2a3.3 3.3 0 0 1 3.1-2l.8.1V13h-1c-.5 0-1 0-1.6.3-.5.3-1 .7-1.2 1.1v9h-2.9v-13ZM143 17.7h-6.8c0 1 .1 1.6.4 2.1.2.5.6.9 1 1.1.5.2 1.1.3 2 .3.8 0 1.7-.1 2.8-.4V23a13.4 13.4 0 0 1-3.2.5c-1.4 0-2.5-.3-3.4-.7a4.2 4.2 0 0 1-2-2.2c-.3-1-.6-2.3-.6-4 0-2.2.5-3.8 1.4-5a4.5 4.5 0 0 1 3.7-1.6c3.1 0 4.7 2.2 4.7 6.8v.8Zm-5.8-5.3c-.3.2-.6.6-.8 1.2l-.2 2.3h4c0-1 0-1.8-.2-2.3-.1-.6-.4-1-.6-1.2-.3-.2-.7-.3-1.1-.3-.5 0-.8 0-1.1.3Z"/><mask id="a" fill="#fff"><path d="M15.6 0c3.2.9 6.2 3.1 7.4 5.9a16 16 0 0 1-.6 13.4 8.6 8.6 0 0 1-16-4.3 8.5 8.5 0 0 1 11.8-8s-1-.5-3.3-.9C8.1 5.3.1 10.4 1.9 22.3a15 15 0 0 0 28-7.4A15 15 0 0 0 15.6 0Z"/></mask><path fill="#fff" d="M15.6 0c3.2.9 6.2 3.1 7.4 5.9a16 16 0 0 1-.6 13.4 8.6 8.6 0 0 1-16-4.3 8.5 8.5 0 0 1 11.8-8s-1-.5-3.3-.9C8.1 5.3.1 10.4 1.9 22.3a15 15 0 0 0 28-7.4A15 15 0 0 0 15.6 0Z"/><path fill="#fff" d="m15.6 0 .5-17.9-5.3 35.1L15.6 0ZM23 5.9 39.5-1l-.1-.2v-.1L23 5.9Zm-.6 13.4 15.1 9.5.1-.1v-.1l-15.2-9.3ZM15 23.5l.2-17.9-.2 17.9ZM6.4 15h-17.8v.1H6.4Zm11.8-8-6.9 16.6 16-32-9.1 15.5Zm-3.3-.9 2.7-17.6h-.4L15 6Zm-13 16.2L-15.7 25l.5 3.2 1.5 2.8L2 22.3Zm13 7.6V12v18Zm15-15H12h18Zm-19 2.3c-.8-.2-1.4-.5-2-1a8.2 8.2 0 0 1-2.3-3.1L39.3-1.3a29.3 29.3 0 0 0-18.9-16l-9.6 34.5Zm-4.4-4.5-.2-.5v-.5c.1-.3.3-.9.8-1.6l30.6 18.5A33.9 33.9 0 0 0 39.5-1l-33 13.7Zm.7-2.8a9.6 9.6 0 0 1 8-4.3l-.4 35.8c9.6 0 17.9-4.9 22.7-12.6L7.2 9.8Zm8-4.3c4.8 0 9 4 9.1 9.3l-35.7.2c0 14.7 12 26.2 26.3 26.3L15 5.6Zm9.1 9.4c0 4.9-4 9.3-9.3 9.3v-35.8C0-11.5-11.4.7-11.4 15h35.7ZM15 24.3c-1 0-2.3-.1-3.7-.7l13.8-33c-4-1.7-7.6-2-10.1-2v35.7ZM18.2 7l9-15.4a16.4 16.4 0 0 0-1.7-1l-2.2-.8c-1.6-.6-3.5-1-5.7-1.4l-5.4 35.3-.6-.2a11.6 11.6 0 0 1-2.4-1.1H9L18 7Zm-1-18.7A29.5 29.5 0 0 0-7.6-3 32.1 32.1 0 0 0-15.7 25l35.3-5.5c-.1-.8 0-.7-.2 0A6 6 0 0 1 18 22a6.3 6.3 0 0 1-5.3 1.9l4.6-35.5ZM-13.7 31a32.8 32.8 0 0 0 28.8 16.8L15 12a3 3 0 0 1 2.6 1.5L-13.7 31Zm28.8 16.8c18 0 32.8-14.8 32.7-33l-35.8.1c0-1.6 1.3-2.9 3-2.9v35.8Zm32.7-33c0-17.3-14-32.2-31.7-32.7l-1 35.8c-1.1 0-1.9-.6-2.3-1a3 3 0 0 1-.8-2h35.8Z" mask="url(#a)"/><path fill="#fff" stroke="#fff" stroke-width=".5" d="M14.8 1.5c2.8.8 5 2.6 6.2 5 .6 1.2.8 2 .9 3-2-2.5-5.3-3.7-8.7-3.6-3.5 0-6.8 1.5-9 4.4-2 2.6-3 6.5-2.2 11.6A15.4 15.4 0 0 1 .6 11.8v-.4l.1-.1V11a4.5 4.5 0 0 1 .2-.4v-.2a.5.5 0 0 0 0-.2c.6-1.7 1.6-3.4 3-5C5 4 6.9 2.5 9.6 1.7c1-.3 2.1-.4 3.2-.4a9 9 0 0 1 2 .2Z"/></svg>